<svg width="362" height="340" viewBox="0 0 362 340" fill="none" xmlns="http://www.w3.org/2000/svg">
<circle cx="186" cy="170" r="140" fill="#090D0E"/>
<path d="M186.006 16.096C185.342 16.096 184.75 15.928 184.23 15.592C183.718 15.248 183.314 14.752 183.018 14.104C182.722 13.456 182.574 12.688 182.574 11.8C182.574 10.912 182.722 10.144 183.018 9.496C183.314 8.848 183.718 8.356 184.23 8.02C184.75 7.676 185.342 7.504 186.006 7.504C186.662 7.504 187.246 7.676 187.758 8.02C188.278 8.356 188.686 8.848 188.982 9.496C189.278 10.144 189.426 10.912 189.426 11.8C189.426 12.688 189.278 13.456 188.982 14.104C188.686 14.752 188.278 15.248 187.758 15.592C187.246 15.928 186.662 16.096 186.006 16.096ZM186.006 15.028C186.678 15.028 187.214 14.752 187.614 14.2C188.022 13.648 188.226 12.848 188.226 11.8C188.226 10.752 188.022 9.952 187.614 9.4C187.214 8.848 186.678 8.572 186.006 8.572C185.326 8.572 184.782 8.848 184.374 9.4C183.974 9.952 183.774 10.752 183.774 11.8C183.774 12.848 183.974 13.648 184.374 14.2C184.782 14.752 185.326 15.028 186.006 15.028Z" fill="#D1D3D2"/>
<path d="M270.356 35.128C271.18 35.208 271.808 35.464 272.24 35.896C272.672 36.32 272.888 36.864 272.888 37.528C272.888 38.008 272.768 38.444 272.528 38.836C272.288 39.22 271.928 39.528 271.448 39.76C270.976 39.984 270.396 40.096 269.708 40.096C269.108 40.096 268.532 40.008 267.98 39.832C267.428 39.648 266.976 39.396 266.624 39.076L267.176 38.128C267.464 38.4 267.832 38.62 268.28 38.788C268.728 38.948 269.204 39.028 269.708 39.028C270.332 39.028 270.816 38.896 271.16 38.632C271.512 38.368 271.688 38.004 271.688 37.54C271.688 37.076 271.516 36.716 271.172 36.46C270.828 36.204 270.308 36.076 269.612 36.076H268.94V35.236L271.052 32.644H267.008V31.6H272.552V32.416L270.356 35.128ZM277.44 40.096C276.776 40.096 276.184 39.928 275.664 39.592C275.152 39.248 274.748 38.752 274.452 38.104C274.156 37.456 274.008 36.688 274.008 35.8C274.008 34.912 274.156 34.144 274.452 33.496C274.748 32.848 275.152 32.356 275.664 32.02C276.184 31.676 276.776 31.504 277.44 31.504C278.096 31.504 278.68 31.676 279.192 32.02C279.712 32.356 280.12 32.848 280.416 33.496C280.712 34.144 280.86 34.912 280.86 35.8C280.86 36.688 280.712 37.456 280.416 38.104C280.12 38.752 279.712 39.248 279.192 39.592C278.68 39.928 278.096 40.096 277.44 40.096ZM277.44 39.028C278.112 39.028 278.648 38.752 279.048 38.2C279.456 37.648 279.66 36.848 279.66 35.8C279.66 34.752 279.456 33.952 279.048 33.4C278.648 32.848 278.112 32.572 277.44 32.572C276.76 32.572 276.216 32.848 275.808 33.4C275.408 33.952 275.208 34.752 275.208 35.8C275.208 36.848 275.408 37.648 275.808 38.2C276.216 38.752 276.76 39.028 277.44 39.028Z" fill="#D1D3D2"/>
<path d="M322.495 94.9C323.047 94.9 323.539 95.004 323.971 95.212C324.411 95.42 324.755 95.72 325.003 96.112C325.251 96.496 325.375 96.94 325.375 97.444C325.375 97.972 325.243 98.436 324.979 98.836C324.723 99.236 324.367 99.548 323.911 99.772C323.463 99.988 322.959 100.096 322.399 100.096C321.271 100.096 320.399 99.732 319.783 99.004C319.175 98.276 318.871 97.244 318.871 95.908C318.871 94.972 319.035 94.176 319.363 93.52C319.699 92.856 320.163 92.356 320.755 92.02C321.355 91.676 322.051 91.504 322.843 91.504C323.251 91.504 323.635 91.548 323.995 91.636C324.355 91.716 324.667 91.836 324.931 91.996L324.475 92.932C324.075 92.668 323.539 92.536 322.867 92.536C321.995 92.536 321.311 92.808 320.815 93.352C320.319 93.888 320.071 94.672 320.071 95.704C320.071 95.832 320.075 95.932 320.083 96.004C320.323 95.644 320.651 95.372 321.067 95.188C321.491 94.996 321.967 94.9 322.495 94.9ZM322.351 99.124C322.903 99.124 323.351 98.976 323.695 98.68C324.039 98.384 324.211 97.988 324.211 97.492C324.211 96.996 324.035 96.604 323.683 96.316C323.339 96.02 322.875 95.872 322.291 95.872C321.915 95.872 321.579 95.944 321.283 96.088C320.995 96.232 320.767 96.428 320.599 96.676C320.439 96.924 320.359 97.2 320.359 97.504C320.359 97.8 320.435 98.072 320.587 98.32C320.747 98.56 320.975 98.756 321.271 98.908C321.575 99.052 321.935 99.124 322.351 99.124ZM329.709 100.096C329.045 100.096 328.453 99.928 327.933 99.592C327.421 99.248 327.017 98.752 326.721 98.104C326.425 97.456 326.277 96.688 326.277 95.8C326.277 94.912 326.425 94.144 326.721 93.496C327.017 92.848 327.421 92.356 327.933 92.02C328.453 91.676 329.045 91.504 329.709 91.504C330.365 91.504 330.949 91.676 331.461 92.02C331.981 92.356 332.389 92.848 332.685 93.496C332.981 94.144 333.129 94.912 333.129 95.8C333.129 96.688 332.981 97.456 332.685 98.104C332.389 98.752 331.981 99.248 331.461 99.592C330.949 99.928 330.365 100.096 329.709 100.096ZM329.709 99.028C330.381 99.028 330.917 98.752 331.317 98.2C331.725 97.648 331.929 96.848 331.929 95.8C331.929 94.752 331.725 93.952 331.317 93.4C330.917 92.848 330.381 92.572 329.709 92.572C329.029 92.572 328.485 92.848 328.077 93.4C327.677 93.952 327.477 94.752 327.477 95.8C327.477 96.848 327.677 97.648 328.077 98.2C328.485 98.752 329.029 99.028 329.709 99.028Z" fill="#D1D3D2"/>
<path d="M339.595 164.504C340.723 164.504 341.591 164.868 342.199 165.596C342.815 166.324 343.123 167.356 343.123 168.692C343.123 169.628 342.955 170.428 342.619 171.092C342.291 171.748 341.827 172.248 341.227 172.592C340.635 172.928 339.943 173.096 339.151 173.096C338.743 173.096 338.359 173.056 337.999 172.976C337.639 172.888 337.327 172.764 337.063 172.604L337.519 171.668C337.927 171.932 338.467 172.064 339.139 172.064C340.011 172.064 340.691 171.796 341.179 171.26C341.675 170.716 341.923 169.928 341.923 168.896V168.596C341.683 168.956 341.351 169.232 340.927 169.424C340.503 169.608 340.027 169.7 339.499 169.7C338.947 169.7 338.451 169.596 338.011 169.388C337.579 169.18 337.239 168.884 336.991 168.5C336.751 168.108 336.631 167.66 336.631 167.156C336.631 166.628 336.759 166.164 337.015 165.764C337.279 165.364 337.635 165.056 338.083 164.84C338.531 164.616 339.035 164.504 339.595 164.504ZM339.703 168.728C340.079 168.728 340.415 168.656 340.711 168.512C341.007 168.368 341.235 168.172 341.395 167.924C341.563 167.676 341.647 167.4 341.647 167.096C341.647 166.8 341.567 166.532 341.407 166.292C341.255 166.044 341.027 165.848 340.723 165.704C340.427 165.552 340.067 165.476 339.643 165.476C339.091 165.476 338.643 165.624 338.299 165.92C337.963 166.216 337.795 166.612 337.795 167.108C337.795 167.604 337.967 168 338.311 168.296C338.655 168.584 339.119 168.728 339.703 168.728ZM347.709 173.096C347.045 173.096 346.453 172.928 345.933 172.592C345.421 172.248 345.017 171.752 344.721 171.104C344.425 170.456 344.277 169.688 344.277 168.8C344.277 167.912 344.425 167.144 344.721 166.496C345.017 165.848 345.421 165.356 345.933 165.02C346.453 164.676 347.045 164.504 347.709 164.504C348.365 164.504 348.949 164.676 349.461 165.02C349.981 165.356 350.389 165.848 350.685 166.496C350.981 167.144 351.129 167.912 351.129 168.8C351.129 169.688 350.981 170.456 350.685 171.104C350.389 171.752 349.981 172.248 349.461 172.592C348.949 172.928 348.365 173.096 347.709 173.096ZM347.709 172.028C348.381 172.028 348.917 171.752 349.317 171.2C349.725 170.648 349.929 169.848 349.929 168.8C349.929 167.752 349.725 166.952 349.317 166.4C348.917 165.848 348.381 165.572 347.709 165.572C347.029 165.572 346.485 165.848 346.077 166.4C345.677 166.952 345.477 167.752 345.477 168.8C345.477 169.848 345.677 170.648 346.077 171.2C346.485 171.752 347.029 172.028 347.709 172.028Z" fill="#D1D3D2"/>
<path d="M321.53 236.6V245H320.342V237.644H318.446V236.6H321.53ZM329.271 243.956V245H323.235V244.184L326.655 240.884C327.071 240.484 327.351 240.14 327.495 239.852C327.639 239.556 327.711 239.26 327.711 238.964C327.711 238.524 327.555 238.184 327.243 237.944C326.939 237.696 326.499 237.572 325.923 237.572C324.995 237.572 324.279 237.876 323.775 238.484L322.959 237.776C323.287 237.376 323.715 237.064 324.243 236.84C324.779 236.616 325.375 236.504 326.031 236.504C326.911 236.504 327.611 236.716 328.131 237.14C328.651 237.556 328.911 238.124 328.911 238.844C328.911 239.292 328.815 239.716 328.623 240.116C328.431 240.516 328.067 240.972 327.531 241.484L324.963 243.956H329.271ZM333.654 245.096C332.99 245.096 332.398 244.928 331.878 244.592C331.366 244.248 330.962 243.752 330.666 243.104C330.37 242.456 330.222 241.688 330.222 240.8C330.222 239.912 330.37 239.144 330.666 238.496C330.962 237.848 331.366 237.356 331.878 237.02C332.398 236.676 332.99 236.504 333.654 236.504C334.31 236.504 334.894 236.676 335.406 237.02C335.926 237.356 336.334 237.848 336.63 238.496C336.926 239.144 337.074 239.912 337.074 240.8C337.074 241.688 336.926 242.456 336.63 243.104C336.334 243.752 335.926 244.248 335.406 244.592C334.894 244.928 334.31 245.096 333.654 245.096ZM333.654 244.028C334.326 244.028 334.862 243.752 335.262 243.2C335.67 242.648 335.874 241.848 335.874 240.8C335.874 239.752 335.67 238.952 335.262 238.4C334.862 237.848 334.326 237.572 333.654 237.572C332.974 237.572 332.43 237.848 332.022 238.4C331.622 238.952 331.422 239.752 331.422 240.8C331.422 241.848 331.622 242.648 332.022 243.2C332.43 243.752 332.974 244.028 333.654 244.028Z" fill="#D1D3D2"/>
<path d="M275.512 298.6V307H274.324V299.644H272.428V298.6H275.512ZM279.749 301.948C280.949 301.948 281.829 302.176 282.389 302.632C282.957 303.08 283.241 303.696 283.241 304.48C283.241 304.976 283.121 305.424 282.881 305.824C282.649 306.216 282.293 306.528 281.813 306.76C281.341 306.984 280.757 307.096 280.061 307.096C279.469 307.096 278.897 307.008 278.345 306.832C277.793 306.648 277.337 306.396 276.977 306.076L277.529 305.128C277.817 305.4 278.185 305.62 278.633 305.788C279.081 305.948 279.553 306.028 280.049 306.028C280.681 306.028 281.169 305.896 281.513 305.632C281.865 305.36 282.041 304.992 282.041 304.528C282.041 304.024 281.849 303.644 281.465 303.388C281.081 303.124 280.425 302.992 279.497 302.992H277.589L278.033 298.6H282.773V299.644H279.041L278.813 301.948H279.749ZM287.672 307.096C287.008 307.096 286.416 306.928 285.896 306.592C285.384 306.248 284.98 305.752 284.684 305.104C284.388 304.456 284.24 303.688 284.24 302.8C284.24 301.912 284.388 301.144 284.684 300.496C284.98 299.848 285.384 299.356 285.896 299.02C286.416 298.676 287.008 298.504 287.672 298.504C288.328 298.504 288.912 298.676 289.424 299.02C289.944 299.356 290.352 299.848 290.648 300.496C290.944 301.144 291.092 301.912 291.092 302.8C291.092 303.688 290.944 304.456 290.648 305.104C290.352 305.752 289.944 306.248 289.424 306.592C288.912 306.928 288.328 307.096 287.672 307.096ZM287.672 306.028C288.344 306.028 288.88 305.752 289.28 305.2C289.688 304.648 289.892 303.848 289.892 302.8C289.892 301.752 289.688 300.952 289.28 300.4C288.88 299.848 288.344 299.572 287.672 299.572C286.992 299.572 286.448 299.848 286.04 300.4C285.64 300.952 285.44 301.752 285.44 302.8C285.44 303.848 285.64 304.648 286.04 305.2C286.448 305.752 286.992 306.028 287.672 306.028Z" fill="#D1D3D2"/>
<path d="M94.812 305.956V307H88.776V306.184L92.196 302.884C92.612 302.484 92.892 302.14 93.036 301.852C93.18 301.556 93.252 301.26 93.252 300.964C93.252 300.524 93.096 300.184 92.784 299.944C92.48 299.696 92.04 299.572 91.464 299.572C90.536 299.572 89.82 299.876 89.316 300.484L88.5 299.776C88.828 299.376 89.256 299.064 89.784 298.84C90.32 298.616 90.916 298.504 91.572 298.504C92.452 298.504 93.152 298.716 93.672 299.14C94.192 299.556 94.452 300.124 94.452 300.844C94.452 301.292 94.356 301.716 94.164 302.116C93.972 302.516 93.608 302.972 93.072 303.484L90.504 305.956H94.812ZM98.4027 298.6V307H97.2147V299.644H95.3187V298.6H98.4027ZM103.672 307.096C103.008 307.096 102.416 306.928 101.896 306.592C101.384 306.248 100.98 305.752 100.684 305.104C100.388 304.456 100.24 303.688 100.24 302.8C100.24 301.912 100.388 301.144 100.684 300.496C100.98 299.848 101.384 299.356 101.896 299.02C102.416 298.676 103.008 298.504 103.672 298.504C104.328 298.504 104.912 298.676 105.424 299.02C105.944 299.356 106.352 299.848 106.648 300.496C106.944 301.144 107.092 301.912 107.092 302.8C107.092 303.688 106.944 304.456 106.648 305.104C106.352 305.752 105.944 306.248 105.424 306.592C104.912 306.928 104.328 307.096 103.672 307.096ZM103.672 306.028C104.344 306.028 104.88 305.752 105.28 305.2C105.688 304.648 105.892 303.848 105.892 302.8C105.892 301.752 105.688 300.952 105.28 300.4C104.88 299.848 104.344 299.572 103.672 299.572C102.992 299.572 102.448 299.848 102.04 300.4C101.64 300.952 101.44 301.752 101.44 302.8C101.44 303.848 101.64 304.648 102.04 305.2C102.448 305.752 102.992 306.028 103.672 306.028Z" fill="#D1D3D2"/>
<path d="M37.1304 243.956V245H31.0944V244.184L34.5144 240.884C34.9304 240.484 35.2104 240.14 35.3544 239.852C35.4984 239.556 35.5704 239.26 35.5704 238.964C35.5704 238.524 35.4144 238.184 35.1024 237.944C34.7984 237.696 34.3584 237.572 33.7824 237.572C32.8544 237.572 32.1384 237.876 31.6344 238.484L30.8184 237.776C31.1464 237.376 31.5744 237.064 32.1024 236.84C32.6384 236.616 33.2344 236.504 33.8904 236.504C34.7704 236.504 35.4704 236.716 35.9904 237.14C36.5104 237.556 36.7704 238.124 36.7704 238.844C36.7704 239.292 36.6744 239.716 36.4824 240.116C36.2904 240.516 35.9264 240.972 35.3904 241.484L32.8224 243.956H37.1304ZM45.2024 242.936H43.6064V245H42.4424V242.936H37.7744V242.096L42.0704 236.6H43.3664L39.2504 241.904H42.4784V240.08H43.6064V241.904H45.2024V242.936ZM49.3537 245.096C48.6897 245.096 48.0977 244.928 47.5777 244.592C47.0657 244.248 46.6617 243.752 46.3657 243.104C46.0697 242.456 45.9217 241.688 45.9217 240.8C45.9217 239.912 46.0697 239.144 46.3657 238.496C46.6617 237.848 47.0657 237.356 47.5777 237.02C48.0977 236.676 48.6897 236.504 49.3537 236.504C50.0097 236.504 50.5937 236.676 51.1057 237.02C51.6257 237.356 52.0337 237.848 52.3297 238.496C52.6257 239.144 52.7737 239.912 52.7737 240.8C52.7737 241.688 52.6257 242.456 52.3297 243.104C52.0337 243.752 51.6257 244.248 51.1057 244.592C50.5937 244.928 50.0097 245.096 49.3537 245.096ZM49.3537 244.028C50.0257 244.028 50.5617 243.752 50.9617 243.2C51.3697 242.648 51.5737 241.848 51.5737 240.8C51.5737 239.752 51.3697 238.952 50.9617 238.4C50.5617 237.848 50.0257 237.572 49.3537 237.572C48.6737 237.572 48.1297 237.848 47.7217 238.4C47.3217 238.952 47.1217 239.752 47.1217 240.8C47.1217 241.848 47.3217 242.648 47.7217 243.2C48.1297 243.752 48.6737 244.028 49.3537 244.028Z" fill="#D1D3D2"/>
<path d="M36.3545 95.128C37.1785 95.208 37.8065 95.464 38.2385 95.896C38.6705 96.32 38.8865 96.864 38.8865 97.528C38.8865 98.008 38.7665 98.444 38.5265 98.836C38.2865 99.22 37.9265 99.528 37.4465 99.76C36.9745 99.984 36.3945 100.096 35.7065 100.096C35.1065 100.096 34.5305 100.008 33.9785 99.832C33.4265 99.648 32.9745 99.396 32.6225 99.076L33.1745 98.128C33.4625 98.4 33.8305 98.62 34.2785 98.788C34.7265 98.948 35.2025 99.028 35.7065 99.028C36.3305 99.028 36.8145 98.896 37.1585 98.632C37.5105 98.368 37.6865 98.004 37.6865 97.54C37.6865 97.076 37.5145 96.716 37.1705 96.46C36.8265 96.204 36.3065 96.076 35.6105 96.076H34.9385V95.236L37.0505 92.644H33.0065V91.6H38.5505V92.416L36.3545 95.128ZM43.4377 100.096C42.7737 100.096 42.1817 99.928 41.6617 99.592C41.1497 99.248 40.7457 98.752 40.4497 98.104C40.1537 97.456 40.0057 96.688 40.0057 95.8C40.0057 94.912 40.1537 94.144 40.4497 93.496C40.7457 92.848 41.1497 92.356 41.6617 92.02C42.1817 91.676 42.7737 91.504 43.4377 91.504C44.0937 91.504 44.6777 91.676 45.1897 92.02C45.7097 92.356 46.1177 92.848 46.4137 93.496C46.7097 94.144 46.8577 94.912 46.8577 95.8C46.8577 96.688 46.7097 97.456 46.4137 98.104C46.1177 98.752 45.7097 99.248 45.1897 99.592C44.6777 99.928 44.0937 100.096 43.4377 100.096ZM43.4377 99.028C44.1097 99.028 44.6457 98.752 45.0457 98.2C45.4537 97.648 45.6577 96.848 45.6577 95.8C45.6577 94.752 45.4537 93.952 45.0457 93.4C44.6457 92.848 44.1097 92.572 43.4377 92.572C42.7577 92.572 42.2137 92.848 41.8057 93.4C41.4057 93.952 41.2057 94.752 41.2057 95.8C41.2057 96.848 41.4057 97.648 41.8057 98.2C42.2137 98.752 42.7577 99.028 43.4377 99.028ZM51.4416 100.096C50.7776 100.096 50.1856 99.928 49.6656 99.592C49.1536 99.248 48.7496 98.752 48.4536 98.104C48.1576 97.456 48.0096 96.688 48.0096 95.8C48.0096 94.912 48.1576 94.144 48.4536 93.496C48.7496 92.848 49.1536 92.356 49.6656 92.02C50.1856 91.676 50.7776 91.504 51.4416 91.504C52.0976 91.504 52.6816 91.676 53.1936 92.02C53.7136 92.356 54.1216 92.848 54.4176 93.496C54.7136 94.144 54.8616 94.912 54.8616 95.8C54.8616 96.688 54.7136 97.456 54.4176 98.104C54.1216 98.752 53.7136 99.248 53.1936 99.592C52.6816 99.928 52.0976 100.096 51.4416 100.096ZM51.4416 99.028C52.1136 99.028 52.6496 98.752 53.0496 98.2C53.4576 97.648 53.6616 96.848 53.6616 95.8C53.6616 94.752 53.4576 93.952 53.0496 93.4C52.6496 92.848 52.1136 92.572 51.4416 92.572C50.7616 92.572 50.2176 92.848 49.8096 93.4C49.4096 93.952 49.2096 94.752 49.2096 95.8C49.2096 96.848 49.4096 97.648 49.8096 98.2C50.2176 98.752 50.7616 99.028 51.4416 99.028Z" fill="#D1D3D2"/>
<path d="M88.9522 35.128C89.7762 35.208 90.4042 35.464 90.8362 35.896C91.2682 36.32 91.4842 36.864 91.4842 37.528C91.4842 38.008 91.3642 38.444 91.1242 38.836C90.8842 39.22 90.5242 39.528 90.0442 39.76C89.5722 39.984 88.9922 40.096 88.3042 40.096C87.7042 40.096 87.1282 40.008 86.5762 39.832C86.0242 39.648 85.5722 39.396 85.2202 39.076L85.7722 38.128C86.0602 38.4 86.4282 38.62 86.8762 38.788C87.3242 38.948 87.8002 39.028 88.3042 39.028C88.9282 39.028 89.4122 38.896 89.7562 38.632C90.1082 38.368 90.2842 38.004 90.2842 37.54C90.2842 37.076 90.1122 36.716 89.7682 36.46C89.4242 36.204 88.9042 36.076 88.2082 36.076H87.5362V35.236L89.6482 32.644H85.6042V31.6H91.1482V32.416L88.9522 35.128ZM95.7608 35.128C96.5848 35.208 97.2128 35.464 97.6448 35.896C98.0768 36.32 98.2928 36.864 98.2928 37.528C98.2928 38.008 98.1728 38.444 97.9328 38.836C97.6928 39.22 97.3328 39.528 96.8528 39.76C96.3808 39.984 95.8008 40.096 95.1128 40.096C94.5128 40.096 93.9368 40.008 93.3848 39.832C92.8328 39.648 92.3808 39.396 92.0288 39.076L92.5808 38.128C92.8688 38.4 93.2368 38.62 93.6848 38.788C94.1328 38.948 94.6088 39.028 95.1128 39.028C95.7368 39.028 96.2208 38.896 96.5648 38.632C96.9168 38.368 97.0928 38.004 97.0928 37.54C97.0928 37.076 96.9208 36.716 96.5768 36.46C96.2328 36.204 95.7128 36.076 95.0168 36.076H94.3448V35.236L96.4568 32.644H92.4128V31.6H97.9568V32.416L95.7608 35.128ZM102.844 40.096C102.18 40.096 101.588 39.928 101.068 39.592C100.556 39.248 100.152 38.752 99.8559 38.104C99.5599 37.456 99.4119 36.688 99.4119 35.8C99.4119 34.912 99.5599 34.144 99.8559 33.496C100.152 32.848 100.556 32.356 101.068 32.02C101.588 31.676 102.18 31.504 102.844 31.504C103.5 31.504 104.084 31.676 104.596 32.02C105.116 32.356 105.524 32.848 105.82 33.496C106.116 34.144 106.264 34.912 106.264 35.8C106.264 36.688 106.116 37.456 105.82 38.104C105.524 38.752 105.116 39.248 104.596 39.592C104.084 39.928 103.5 40.096 102.844 40.096ZM102.844 39.028C103.516 39.028 104.052 38.752 104.452 38.2C104.86 37.648 105.064 36.848 105.064 35.8C105.064 34.752 104.86 33.952 104.452 33.4C104.052 32.848 103.516 32.572 102.844 32.572C102.164 32.572 101.62 32.848 101.212 33.4C100.812 33.952 100.612 34.752 100.612 35.8C100.612 36.848 100.812 37.648 101.212 38.2C101.62 38.752 102.164 39.028 102.844 39.028Z" fill="#D1D3D2"/>
<path d="M179.096 323.6V332H177.908V324.644H176.012V323.6H179.096ZM186.069 327.596C186.549 327.78 186.917 328.044 187.173 328.388C187.429 328.732 187.557 329.144 187.557 329.624C187.557 330.128 187.421 330.568 187.149 330.944C186.877 331.312 186.489 331.596 185.985 331.796C185.481 331.996 184.889 332.096 184.209 332.096C183.537 332.096 182.949 331.996 182.445 331.796C181.949 331.596 181.565 331.312 181.293 330.944C181.021 330.568 180.885 330.128 180.885 329.624C180.885 329.144 181.009 328.732 181.257 328.388C181.513 328.044 181.881 327.78 182.361 327.596C181.977 327.412 181.685 327.168 181.485 326.864C181.285 326.56 181.185 326.2 181.185 325.784C181.185 325.32 181.309 324.916 181.557 324.572C181.813 324.228 182.169 323.964 182.625 323.78C183.081 323.596 183.609 323.504 184.209 323.504C184.817 323.504 185.349 323.596 185.805 323.78C186.269 323.964 186.625 324.228 186.873 324.572C187.129 324.916 187.257 325.32 187.257 325.784C187.257 326.192 187.153 326.552 186.945 326.864C186.745 327.168 186.453 327.412 186.069 327.596ZM184.209 324.476C183.641 324.476 183.193 324.6 182.865 324.848C182.537 325.088 182.373 325.416 182.373 325.832C182.373 326.248 182.533 326.576 182.853 326.816C183.181 327.056 183.633 327.176 184.209 327.176C184.793 327.176 185.249 327.056 185.577 326.816C185.913 326.576 186.081 326.248 186.081 325.832C186.081 325.416 185.909 325.088 185.565 324.848C185.229 324.6 184.777 324.476 184.209 324.476ZM184.209 331.124C184.873 331.124 185.397 330.988 185.781 330.716C186.165 330.436 186.357 330.06 186.357 329.588C186.357 329.124 186.165 328.76 185.781 328.496C185.397 328.224 184.873 328.088 184.209 328.088C183.545 328.088 183.025 328.224 182.649 328.496C182.273 328.76 182.085 329.124 182.085 329.588C182.085 330.06 182.273 330.436 182.649 330.716C183.025 330.988 183.545 331.124 184.209 331.124ZM192.088 332.096C191.424 332.096 190.832 331.928 190.312 331.592C189.8 331.248 189.396 330.752 189.1 330.104C188.804 329.456 188.656 328.688 188.656 327.8C188.656 326.912 188.804 326.144 189.1 325.496C189.396 324.848 189.8 324.356 190.312 324.02C190.832 323.676 191.424 323.504 192.088 323.504C192.744 323.504 193.328 323.676 193.84 324.02C194.36 324.356 194.768 324.848 195.064 325.496C195.36 326.144 195.508 326.912 195.508 327.8C195.508 328.688 195.36 329.456 195.064 330.104C194.768 330.752 194.36 331.248 193.84 331.592C193.328 331.928 192.744 332.096 192.088 332.096ZM192.088 331.028C192.76 331.028 193.296 330.752 193.696 330.2C194.104 329.648 194.308 328.848 194.308 327.8C194.308 326.752 194.104 325.952 193.696 325.4C193.296 324.848 192.76 324.572 192.088 324.572C191.408 324.572 190.864 324.848 190.456 325.4C190.056 325.952 189.856 326.752 189.856 327.8C189.856 328.848 190.056 329.648 190.456 330.2C190.864 330.752 191.408 331.028 192.088 331.028Z" fill="#D1D3D2"/>
<path d="M13.5816 171.956V173H7.54556V172.184L10.9656 168.884C11.3816 168.484 11.6616 168.14 11.8056 167.852C11.9496 167.556 12.0216 167.26 12.0216 166.964C12.0216 166.524 11.8656 166.184 11.5536 165.944C11.2496 165.696 10.8096 165.572 10.2336 165.572C9.30556 165.572 8.58956 165.876 8.08556 166.484L7.26956 165.776C7.59756 165.376 8.02556 165.064 8.55356 164.84C9.08956 164.616 9.68556 164.504 10.3416 164.504C11.2216 164.504 11.9216 164.716 12.4416 165.14C12.9616 165.556 13.2216 166.124 13.2216 166.844C13.2216 167.292 13.1256 167.716 12.9336 168.116C12.7416 168.516 12.3776 168.972 11.8416 169.484L9.27356 171.956H13.5816ZM20.653 164.6V165.416L17.257 173H15.985L19.309 165.644H15.469V167.144H14.317V164.6H20.653ZM24.9025 173.096C24.2385 173.096 23.6465 172.928 23.1265 172.592C22.6145 172.248 22.2105 171.752 21.9145 171.104C21.6185 170.456 21.4705 169.688 21.4705 168.8C21.4705 167.912 21.6185 167.144 21.9145 166.496C22.2105 165.848 22.6145 165.356 23.1265 165.02C23.6465 164.676 24.2385 164.504 24.9025 164.504C25.5585 164.504 26.1425 164.676 26.6545 165.02C27.1745 165.356 27.5825 165.848 27.8785 166.496C28.1745 167.144 28.3225 167.912 28.3225 168.8C28.3225 169.688 28.1745 170.456 27.8785 171.104C27.5825 171.752 27.1745 172.248 26.6545 172.592C26.1425 172.928 25.5585 173.096 24.9025 173.096ZM24.9025 172.028C25.5745 172.028 26.1105 171.752 26.5105 171.2C26.9185 170.648 27.1225 169.848 27.1225 168.8C27.1225 167.752 26.9185 166.952 26.5105 166.4C26.1105 165.848 25.5745 165.572 24.9025 165.572C24.2225 165.572 23.6785 165.848 23.2705 166.4C22.8705 166.952 22.6705 167.752 22.6705 168.8C22.6705 169.848 22.8705 170.648 23.2705 171.2C23.6785 171.752 24.2225 172.028 24.9025 172.028Z" fill="#D1D3D2"/>
<circle cx="186" cy="170" r="135" fill="#0B6051"/>
<circle cx="186" cy="169" r="125" fill="#00715D"/>
<path d="M88.8125 225.313L93.1875 220.813C91.625 220.5 90.1875 219.875 88.875 219L88.8125 225.313ZM103.188 190.688L98.8125 195.187C100.375 195.5 101.813 196.125 103.125 197L103.188 190.688ZM78.6875 215.188L85 215.125C84.125 213.813 83.5 212.375 83.1875 210.813L78.6875 215.188ZM113.313 200.813L107 200.875C107.812 202.187 108.438 203.625 108.813 205.188L113.313 200.813ZM78.6875 200.813L83.1875 205.188C83.5 203.625 84.125 202.187 85 200.875L78.6875 200.813ZM113.313 215.188L108.813 210.813C108.5 212.375 107.875 213.813 107 215.125L113.313 215.188ZM88.8125 190.688L88.875 197C90.1875 196.187 91.625 195.562 93.1875 195.187L88.8125 190.688V190.688ZM103.188 225.313L103.125 219C101.813 219.875 100.375 220.5 98.8125 220.813L103.188 225.313" fill="#FFE62E"/>
<path d="M85.25 215.5L82.75 221.312L88.5625 218.812C87.25 217.875 86.125 216.75 85.25 215.5ZM106.75 200.5L109.25 194.687L103.5 197.187C104.75 198.125 105.875 199.25 106.75 200.5ZM83.125 205.687L77.25 208L83.125 210.313C82.9375 209.563 82.875 208.812 82.875 208C82.875 207.188 82.9375 206.437 83.125 205.687V205.687ZM108.875 210.313L114.75 208L108.875 205.687C109 206.437 109.125 207.25 109.125 208C109.125 208.812 109.062 209.563 108.875 210.313ZM88.5 197.25L82.6875 194.75L85.1875 200.563C86.125 199.25 87.25 198.125 88.5 197.25ZM103.5 218.75L109.312 221.25L106.812 215.438C105.875 216.75 104.75 217.875 103.5 218.75ZM98.3125 195.125L96 189.25L93.6875 195.125C94.4375 195 95.25 194.875 96 194.875C96.75 194.875 97.5625 194.937 98.3125 195.125V195.125ZM93.6875 220.875L96 226.75L98.3125 220.875C97.5625 221.062 96.8125 221.125 96 221.125C95.1875 221.125 94.4375 221.062 93.6875 220.875" fill="#FFCE31"/>
<path d="M96 219.875C102.558 219.875 107.875 214.558 107.875 208C107.875 201.442 102.558 196.125 96 196.125C89.4416 196.125 84.125 201.442 84.125 208C84.125 214.558 89.4416 219.875 96 219.875Z" fill="#FFCE31"/>
<path d="M193.996 60.2V77H190.084L182.668 68.048V77H178.012V60.2H181.924L189.34 69.152V60.2H193.996Z" fill="#F43737"/>
<path d="M193.996 58.2V75H190.084L182.668 66.048V75H178.012V58.2H181.924L189.34 67.152V58.2H193.996Z" fill="#EE5A5A"/>
<path d="M298.106 174.328V178H284.618V161.2H297.794V164.872H289.322V167.704H296.786V171.256H289.322V174.328H298.106Z" fill="white"/>
<path d="M185.814 281.336C184.454 281.336 183.134 281.168 181.854 280.832C180.574 280.496 179.534 280.048 178.734 279.488L180.294 275.984C181.046 276.48 181.918 276.88 182.91 277.184C183.902 277.488 184.878 277.64 185.838 277.64C187.662 277.64 188.574 277.184 188.574 276.272C188.574 275.792 188.31 275.44 187.782 275.216C187.27 274.976 186.438 274.728 185.286 274.472C184.022 274.2 182.966 273.912 182.118 273.608C181.27 273.288 180.542 272.784 179.934 272.096C179.326 271.408 179.022 270.48 179.022 269.312C179.022 268.288 179.302 267.368 179.862 266.552C180.422 265.72 181.254 265.064 182.358 264.584C183.478 264.104 184.846 263.864 186.462 263.864C187.566 263.864 188.654 263.992 189.726 264.248C190.798 264.488 191.742 264.848 192.558 265.328L191.094 268.856C189.494 267.992 187.942 267.56 186.438 267.56C185.494 267.56 184.806 267.704 184.374 267.992C183.942 268.264 183.726 268.624 183.726 269.072C183.726 269.52 183.982 269.856 184.494 270.08C185.006 270.304 185.83 270.536 186.966 270.776C188.246 271.048 189.302 271.344 190.134 271.664C190.982 271.968 191.71 272.464 192.318 273.152C192.942 273.824 193.254 274.744 193.254 275.912C193.254 276.92 192.974 277.832 192.414 278.648C191.854 279.464 191.014 280.12 189.894 280.616C188.774 281.096 187.414 281.336 185.814 281.336Z" fill="white"/>
<path d="M94.8289 161.2L89.3809 178H84.2929L81.0769 167.776L77.7169 178H72.6289L67.1809 161.2H72.0769L75.4609 171.928L79.0129 161.2H83.3809L86.7649 172.024L90.2929 161.2H94.8289Z" fill="white"/>
<path d="M218.505 239.683L187.701 202.022L161.188 242.817L166.037 194.406L118.442 204.505L156.103 173.701L115.308 147.188L163.719 152.037L153.62 104.442L184.425 142.103L210.937 101.308L206.088 149.719L253.683 139.62L216.022 170.425L256.817 196.937L208.406 192.088L218.505 239.683Z" fill="#0B6051"/>
<path d="M192.455 161.227L186.567 125.744L177.615 175.23L192.455 161.227Z" fill="#DD2E44"/>
<path d="M182.584 155.33C173.402 157.211 167.483 166.18 169.364 175.363C171.246 184.546 180.215 190.465 189.398 188.583C198.581 186.702 204.499 177.733 202.618 168.55C200.737 159.367 191.767 153.448 182.584 155.33Z" fill="#00715D"/>
<path d="M184.153 162.987C179.2 164.002 176.007 168.841 177.022 173.794C178.037 178.748 182.875 181.941 187.829 180.926C192.782 179.911 195.975 175.072 194.96 170.119C193.945 165.165 189.107 161.972 184.153 162.987Z" fill="#F7DB5E"/>
<line x1="185.5" y1="30" x2="185.5" y2="20" stroke="#D1D3D2"/>
<line x1="185.5" y1="320" x2="185.5" y2="310" stroke="#D1D3D2"/>
<line x1="326" y1="169.5" x2="336" y2="169.5" stroke="#D1D3D2"/>
<line x1="36" y1="169.5" x2="46" y2="169.5" stroke="#D1D3D2"/>
</svg>
